<svg id="Groupe_7" data-name="Groupe 7" xmlns="http://www.w3.org/2000/svg" xmlns:xlink="http://www.w3.org/1999/xlink" width="132.846" height="22.871" viewBox="0 0 132.846 22.871">
  <defs>
    <clipPath id="clip-path">
      <path id="Tracé_20" data-name="Tracé 20" d="M0,0H132.846V22.871H0Z" fill="#fff"/>
    </clipPath>
  </defs>
  <g id="Groupe_de_masques_1" data-name="Groupe de masques 1" clip-path="url(#clip-path)">
    <path id="Tracé_7" data-name="Tracé 7" d="M11.036,18.717l-.029.029a.655.655,0,0,1-.923,0,5.927,5.927,0,0,0-8.347,8.417l8.847,8.842,8.834-8.91a5.927,5.927,0,0,0-8.383-8.382Z" transform="translate(0 -14.947)" fill="#fff"/>
    <path id="Tracé_8" data-name="Tracé 8" d="M715.97,165.9a7.485,7.485,0,0,1,2.843,0l-1.421-3.409Z" transform="translate(-630.219 -143.031)" fill="#fff"/>
    <path id="Tracé_9" data-name="Tracé 9" d="M649.654,17.292a.624.624,0,0,1,.1-.082l.031-.018h0c.021-.012.042-.023.064-.032a.6.6,0,0,1,.064-.025l.022-.006h0a.662.662,0,0,1,.21-.029l.06,0h0a.655.655,0,0,1,.43.184,5.927,5.927,0,0,0,8.318-8.445L650.106,0l-8.834,8.909a5.928,5.928,0,0,0,8.382,8.383Z" transform="translate(-562.938)" fill="#fff"/>
    <path id="Tracé_10" data-name="Tracé 10" d="M334.815,19.743a5.832,5.832,0,0,0,4.279-1.876.655.655,0,0,1,.963,0,5.816,5.816,0,1,0,5.765-9.561.655.655,0,0,1-.482-.722,5.817,5.817,0,1,0-11.529,0,.655.655,0,0,1-.482.722,5.815,5.815,0,0,0,1.487,11.437Z" transform="translate(-289.594 -0.868)" fill="#fff"/>
    <path id="Tracé_11" data-name="Tracé 11" d="M402.09,164.753a8.995,8.995,0,0,1,3.646,0l-1.823-3.5Z" transform="translate(-353.932 -141.942)" fill="#fff"/>
    <path id="Tracé_12" data-name="Tracé 12" d="M929.753,34.965l-9.283-9.679,9.283-9.679,9.283,9.679Z" transform="translate(-811.986 -13.739)" fill="#fff"/>
  </g>
</svg>
